# xmcd CD database file
#
# Track frame offsets:
#	150
#	14499
#	31469
#	64216
#	89129
#	107094
#	119900
#	136732
#	152320
#	170220
#	199595
#	229684
#
# Disc length: 3224 seconds
#
# Revision: 0
# Processed by: cddbd v1.5.2PL0 Copyright (c) Steve Scherf et al.
# Submitted via: CDex 1.51
#
DISCID=a70c960c
DTITLE=Various Artist - The Best Jazz Vol. 13
DYEAR=2007
DGENRE=Jazz
TTITLE0=Thelonious Monk - 'Round Midnight
TTITLE1=Chet Baker - Let's Get Lost
TTITLE2=Horace Silver - Song For My Father
TTITLE3=Herbie Hancock - Cantaloupe Island
TTITLE4=Stanley Turrentine - God Bless The Child
TTITLE5=Coleman Hawkins - Someone To Watch Over Me
TTITLE6=Clifford Brown - Easy Living
TTITLE7=Benny Goodman - Moonglow (Live)
TTITLE8=George Shearing - Like Someone In Love
TTITLE9=Billie Holiday - Lover Come Back To Me (Live)
TTITLE10=Charlie Hunter - People
TTITLE11=Nancy Wilson - Cannonball Adderley - Save Your Love For Me
EXTD=YEAR: 2007
EXTT0=
EXTT1=
EXTT2=
EXTT3=
EXTT4=
EXTT5=
EXTT6=
EXTT7=
EXTT8=
EXTT9=
EXTT10=
EXTT11=
PLAYORDER=
